<svg id="visual" viewBox="0 0 900 600" width="900" height="600" xmlns="http://www.w3.org/2000/svg" xmlns:xlink="http://www.w3.org/1999/xlink" version="1.1"><rect x="0" y="0" width="900" height="600" fill="#FEF4EE"></rect><path d="M0 313L16.7 314.2C33.3 315.3 66.7 317.7 100 326.8C133.3 336 166.7 352 200 380.3C233.3 408.7 266.7 449.3 300 442.2C333.3 435 366.7 380 400 350.5C433.3 321 466.7 317 500 323.7C533.3 330.3 566.7 347.7 600 359.8C633.3 372 666.7 379 700 394.7C733.3 410.3 766.7 434.7 800 438.8C833.3 443 866.7 427 883.3 419L900 411L900 601L883.3 601C866.7 601 833.3 601 800 601C766.7 601 733.3 601 700 601C666.7 601 633.3 601 600 601C566.7 601 533.3 601 500 601C466.7 601 433.3 601 400 601C366.7 601 333.3 601 300 601C266.7 601 233.3 601 200 601C166.7 601 133.3 601 100 601C66.7 601 33.3 601 16.7 601L0 601Z" fill="#C87C6D" stroke-linecap="round" stroke-linejoin="miter"></path></svg>